HIERARCHY
ROOT base
{
	OFFSET 0.0 0.0 0.0
	CHANNELS 6 Xposition Yposition Zposition Zrotation Yrotation Xrotation
	JOINT root
	{
		OFFSET 0 0 0
		CHANNELS 6 Xposition Yposition Zposition Zrotation Yrotation Xrotation
		JOINT chest
		{
			OFFSET 0 4.72302 0
			CHANNELS 3 Zrotation Yrotation Xrotation
			JOINT neck
			{
				OFFSET 0 4.47788 0
				CHANNELS 3 Zrotation Yrotation Xrotation
				End Site
				{
					OFFSET 0.0 0.0 0.0
				}
			}
			JOINT right_shoulder
			{
				OFFSET -0.481 4.87 3.6622
				CHANNELS 3 Zrotation Yrotation Xrotation
				JOINT right_elbow
				{
					OFFSET 0 -5.49576 0
					CHANNELS 3 Zrotation Yrotation Xrotation
					JOINT right_wrist
					{
						OFFSET 0 -5.17894 0
						CHANNELS 3 Zrotation Yrotation Xrotation
						End Site
						{
							OFFSET 0.0 0.0 0.0
						}
					}
				}
			}
			JOINT left_shoulder
			{
				OFFSET -0.481 4.87 -3.6622
				CHANNELS 3 Zrotation Yrotation Xrotation
				JOINT left_elbow
				{
					OFFSET 0 -5.49576 0
					CHANNELS 3 Zrotation Yrotation Xrotation
					JOINT left_wrist
					{
						OFFSET 0 -5.17894 0
						CHANNELS 3 Zrotation Yrotation Xrotation
						End Site
						{
							OFFSET 0.0 0.0 0.0
						}
					}
				}
			}
		}
		JOINT right_hip
		{
			OFFSET 0 0 1.69774
			CHANNELS 3 Zrotation Yrotation Xrotation
			JOINT right_knee
			{
				OFFSET 0 -8.43092 0
				CHANNELS 3 Zrotation Yrotation Xrotation
				JOINT right_ankle
				{
					OFFSET 0 -8.1974 0
					CHANNELS 3 Zrotation Yrotation Xrotation
					End Site
					{
						OFFSET 0.0 0.0 0.0
					}
				}
			}
		}
		JOINT left_hip
		{
			OFFSET 0 0 -1.69774
			CHANNELS 3 Zrotation Yrotation Xrotation
			JOINT left_knee
			{
				OFFSET 0 -8.43092 0
				CHANNELS 3 Zrotation Yrotation Xrotation
				JOINT left_ankle
				{
					OFFSET 0 -8.1974 0
					CHANNELS 3 Zrotation Yrotation Xrotation
					End Site
					{
						OFFSET 0.0 0.0 0.0
					}
				}
			}
		}
	}
	JOINT red_arrow
	{
		OFFSET 0 0 0
		CHANNELS 3 Zrotation Yrotation Xrotation
		End Site
		{
			OFFSET 0.0 0.0 0.0
		}
	}
	JOINT blue_arrow
	{
		OFFSET 0 0 0
		CHANNELS 3 Zrotation Yrotation Xrotation
		End Site
		{
			OFFSET 0.0 0.0 0.0
		}
	}
}
MOTION
Frames: 9
Frame Time: 0.0333333333333333
0 18.08466 0 0 0 0 0 0 0 0 -90 0 0 0 0 0 0 0 0 0 -90 0 0 0 0 0 0 0 0 90 0 0 0 0 0 0 0 0 0 0 0 0 0 0 0 0 0 0 0 0 0 0 0 0 0 0 0 0 0 0
-0.330201325565577 0 -0.0104588106274605 0 -1.20101402201426 0 0 17.9303745627403 0 -3.76547149720386 -1.34179650624242E-15 2.73738352187995 -1.09001861617938 0.460159158942482 1.12398992852563 -15.7405948861635 -4.73773857855067 1.48840419375731 11.9655225318043 -9.7167908796995 -13.8468555193666 10.2768810638933 0 0 0 0 0 9.737536861626 -8.01518365440648 14.5779903436432 3.22287299808153 0 0 0 0 0 0.297773846674542 -1.05446930672222 -2.62433755539956 4.26325172791263E-06 0 0 -1.68308323084456 -8.34522229186039 1.78870883944755 2.06240686859566 -0.954539519683647 -1.52252204183027 0.000202725032257897 0 0 -5.77275548902825 9.05758594444337 2.04412427994486 0 0 0 0 0 0
-0.624972024559975 0 -0.00702921971678734 0 -1.18944182244054 0 0 17.9014402151108 0 -4.8353857375029 0.219089273629601 1.98149125086854 -5.51257233934873 0.689756524160182 2.61154409413407 -15.9579281451881 -6.50064020812739 2.73663435026657 11.4750765576433 -9.27812523562219 -27.3150871733894 1.91882339966508 0 0 0 0 0 2.07666932203766 -11.334074417138 26.7466878286662 -0.00111406892885671 0 0 0 0 0 2.64010703786655 -1.1901960808892 -1.75431541541008 0.000411093495811068 0 0 -2.74571802709207 -8.41542242215338 0.558687132540406 5.27867426661856 1.06138665240926 -0.822857874157344 0.000292477921682336 0 0 -6.17049535861 6.80360654533168 3.87724042986818 0 0 0 0 0 0
-1.03211775720119 0 -0.0677124990150332 0 -1.10837081738162 0 0 17.7397325515747 0 -7.25647737375013 1.52801781417195 1.49906621148534 -9.98030667827813 1.13120699662796 4.39962151706196 -14.9026816235373 -8.73683252447702 4.41132018565935 7.11537526003212 -13.9182798439388 -41.9116197872901 -0.0551412244072104 0 0 0 0 0 -8.62591915484851 -9.65275501656893 39.309855478253 -4.48197129802551E-06 0 0 0 0 0 6.11256391265987 -2.3481980401333 -1.57559046047342 0.000373487591066953 0 0 -0.208077677646763 -8.45457898713635 0.171895596999198 11.3127120906138 4.17694373087017 -1.26479535220746 1.99199672472972E-05 0 0 -6.28250344837094 4.64960004601263 5.45156702412299 0 0 0 0 0 0
-1.53464798927307 0 -0.0965110920369625 0 -0.989167104926237 0 0 17.6354274749756 0 -10.1402831505475 2.22952843043349 0.161731531235111 -14.9683455435511 2.27497945198273 6.77205010631908 -13.111118406588 -9.61452315344311 5.8347959004692 2.66406305800292 -22.829189354099 -53.2991362441492 -6.78677322461115E-06 0 0 0 0 0 -17.1067975448093 -2.69240488377589 47.1644232869986 -3.31118683045159E-05 0 0 0 0 0 12.3517262245406 -4.27646926639691 -0.698024641776898 -3.73574379200815 0 0 1.56693033034842 -7.30992189922923 -0.00517798112007436 18.5196449445417 8.18914097094848 -0.796480123389769 0.00813243660567442 0 0 -6.86988061662805 3.06583643736124 6.16981832863172 0 0 0 0 0 0
-2.14127018153667 0 -0.166183718759567 0 -0.852520787745517 0 0 17.5571798563004 0 -13.5677574105607 2.52392111742799 -0.429537160116757 -19.6475672143527 3.18709751625842 7.72620580317142 -11.0176887269757 -9.64600360795644 6.78977722451887 -0.557272826990012 -33.3685671823997 -59.8283607713738 -9.12810338915796E-07 0 0 0 0 0 -22.3498301169792 7.65770949656741 49.8993547203951 -0.0172173294173886 0 0 0 0 0 21.6983986465733 -6.00447987993411 -1.41572084937579 -11.7422699757892 0 0 3.10402262687087 -3.98021368312195 0.407414197709804 27.964628693714 13.4366895258563 -0.680130036932158 -1.4032362181612 0 0 -11.5238522849604 2.55689526314444 8.58391762715339 0 0 0 0 0 0
-2.80120134353638 0 -0.229313765466213 0 -0.728922058591461 0 0 17.3510990858078 0 -17.2741053364674 2.24256329117127 -0.861317808793365 -23.7181861003858 3.78802437538698 8.00712413864404 -7.8891119581961 -8.41863161258931 6.70059433203228 -3.85983664146982 -43.5818005344528 -60.9295979208594 -1.48199273582428E-06 0 0 0 0 0 -25.8062993418436 19.5616321586932 47.8193148788336 -1.06955133050631E-07 0 0 0 0 0 33.6181083375098 -5.8265663647605 -2.43245790072377 -23.6143716024165 0 0 4.39042028034732 -1.23108022808805 0.917239045476376 40.3828129997714 16.4103313065114 0.977485243441017 -7.83492280352632 0 0 -16.8510954869013 3.06544627805212 10.7132168615256 0 0 0 0 0 0
-3.37514410614967 0 -0.277844799309969 0 -0.622842040035237 0 0 16.9782629013062 0 -20.2207440691705 1.89139287599612 -1.35039982866332 -27.2536725364655 4.11456934028652 8.25082799748514 -4.13888619569154 -6.51322903171859 5.43275725976988 -11.0289376176804 -50.9434091079829 -53.0871233045497 -4.34696789646099E-07 0 0 0 0 0 -28.3394549762101 31.4865803991931 42.9754529500754 -5.14956331366647E-05 0 0 0 0 0 45.3416060913627 -2.97313992605391 -2.59834390739434 -36.8082924183597 0 0 4.08003229159931 -0.459935871278376 1.77942700846185 52.6523913987244 16.6603960016012 3.59860737807178 -18.6003877893181 0 0 -20.4756965475636 3.93494459282428 11.6467455765262 0 0 0 0 0 0
-3.84838775992394 0 -0.367051388323307 0 -0.579431227601692 0 0 16.4223307609558 0 -22.840938355356 0.76013708153934 -1.33492128838977 -29.5967147451427 4.49894833538671 8.47740813950464 0.584163209166467 -4.53224519552346 2.31036594643534 -21.113363183764 -53.7574670459021 -38.9918544499485 -1.61489190785598E-07 0 0 0 0 0 -29.4408701368526 41.5332399804779 35.9332268289608 -0.308175707432169 0 0 0 0 0 57.5866824989458 1.70039381521005 -1.33002422733823 -50.2228180992106 0 0 3.28459580943454 -0.324977053513748 1.19196046324716 62.722561239216 14.8057083632651 6.04311412035917 -31.0368781923474 0 0 -21.1785285410376 4.56815737350435 10.0306874559049 0 0 0 0 0 0
